<svg xmlns="http://www.w3.org/2000/svg" xmlns:xlink="http://www.w3.org/1999/xlink" width="170.445" height="130.791" viewBox="0 0 170.445 130.791">
  <defs>
    <filter id="Path_1">
      <feOffset dy="3" input="SourceAlpha"/>
      <feGaussianBlur stdDeviation="3" result="blur"/>
      <feFlood flood-opacity="0.267" result="color"/>
      <feComposite operator="out" in="SourceGraphic" in2="blur"/>
      <feComposite operator="in" in="color"/>
      <feComposite operator="in" in2="SourceGraphic"/>
    </filter>
    <filter id="Path_2">
      <feOffset dy="3" input="SourceAlpha"/>
      <feGaussianBlur stdDeviation="3" result="blur-2"/>
      <feFlood flood-opacity="0.271" result="color-2"/>
      <feComposite operator="out" in="SourceGraphic" in2="blur-2"/>
      <feComposite operator="in" in="color-2"/>
      <feComposite operator="in" in2="SourceGraphic"/>
    </filter>
  </defs>
  <g id="Group_33" data-name="Group 33" transform="translate(0 0)">
    <g data-type="innerShadowGroup">
      <path id="Path_1-2" data-name="Path 1" d="M93.112,250.734a42.585,42.585,0,1,0,16.116,33.332V196.183L93.122,195.9v54.845Zm-26.5,59.829a26.5,26.5,0,1,1,26.5-26.509,26.542,26.542,0,0,1-26.5,26.509Z" transform="translate(-24 -195.889)" fill="#f4f3ee" fill-rule="evenodd"/>
      <g transform="matrix(1, 0, 0, 1, 0, 0)" filter="url(#Path_1)">
        <path id="Path_1-3" data-name="Path 1" d="M93.112,250.734a42.585,42.585,0,1,0,16.116,33.332V196.183L93.122,195.9v54.845Zm-26.5,59.829a26.5,26.5,0,1,1,26.5-26.509,26.542,26.542,0,0,1-26.5,26.509Z" transform="translate(-24 -195.89)" fill="#fff" fill-rule="evenodd"/>
      </g>
    </g>
    <g data-type="innerShadowGroup">
      <path id="Path_2-2" data-name="Path 2" d="M118.426,271.836A42.585,42.585,0,1,0,102.31,238.5v87.883l16.105.283V271.825Zm26.5-59.829a26.5,26.5,0,1,1-26.5,26.5A26.539,26.539,0,0,1,144.924,212.006Z" transform="translate(-17.093 -195.89)" fill="#f4f3ee" fill-rule="evenodd"/>
      <g transform="matrix(1, 0, 0, 1, 0, 0)" filter="url(#Path_2)">
        <path id="Path_2-3" data-name="Path 2" d="M118.426,271.836A42.585,42.585,0,1,0,102.31,238.5v87.883l16.105.283V271.825Zm26.5-59.829a26.5,26.5,0,1,1-26.5,26.5A26.539,26.539,0,0,1,144.924,212.006Z" transform="translate(-17.09 -195.89)" fill="#fff" fill-rule="evenodd"/>
      </g>
    </g>
  </g>
</svg>
