<svg xmlns="http://www.w3.org/2000/svg" xmlns:xlink="http://www.w3.org/1999/xlink" width="824.495" height="814.565" viewBox="0 0 824.495 814.565">
  <defs>
    <filter id="Path_57" x="86.017" y="346.689" width="632.568" height="467.875" filterUnits="userSpaceOnUse">
      <feOffset dx="-6" dy="4" input="SourceAlpha"/>
      <feGaussianBlur stdDeviation="3" result="blur"/>
      <feFlood flood-opacity="0.051"/>
      <feComposite operator="in" in2="blur"/>
      <feComposite in="SourceGraphic"/>
    </filter>
    <filter id="Path_58" x="0" y="41.818" width="563.921" height="447.649" filterUnits="userSpaceOnUse">
      <feOffset dx="-6" dy="4" input="SourceAlpha"/>
      <feGaussianBlur stdDeviation="3" result="blur-2"/>
      <feFlood flood-opacity="0.047"/>
      <feComposite operator="in" in2="blur-2"/>
      <feComposite in="SourceGraphic"/>
    </filter>
  </defs>
  <g id="Group_40" data-name="Group 40" transform="matrix(0.966, -0.259, 0.259, 0.966, -13703.555, -2240.816)">
    <g transform="matrix(0.97, 0.26, -0.26, 0.97, 12656.65, 5711.2)" filter="url(#Path_57)">
      <path id="Path_57-2" data-name="Path 57" d="M548.549,548.366h0A325.251,325.251,0,0,1,0,321H180.607c4.88,76.036,68.43,135.592,144.679,135.592a144.77,144.77,0,0,0,95.5-35.984Z" transform="matrix(0.97, -0.26, 0.26, 0.97, 19.19, 184.94)" fill="#e53314" stroke="#dbdbdb" stroke-width="2"/>
    </g>
    <g transform="matrix(0.97, 0.26, -0.26, 0.97, 12656.65, 5711.2)" filter="url(#Path_58)">
      <path id="Path_58-2" data-name="Path 58" d="M479.139,38.6,388.784,195.1a144.08,144.08,0,0,0-63.5-14.659c-75.694,0-139.213,59.1-144.608,134.549H.03a327.836,327.836,0,0,1,6.446-55.154A325.309,325.309,0,0,1,259.7,6.611a328.581,328.581,0,0,1,131.167,0,323.774,323.774,0,0,1,61.085,18.962c9.187,3.885,18.333,8.268,27.184,13.025Z" transform="matrix(0.97, -0.26, 0.26, 0.97, 15.62, 171.6)" fill="#004393" stroke="#dbdbdb" stroke-width="1"/>
    </g>
    <rect id="Rectangle_27" data-name="Rectangle 27" width="663.023" height="650.84" transform="translate(12627.321 5881)" fill="none"/>
  </g>
</svg>
